<svg width="210" height="210" viewBox="0 0 210 210" fill="none" xmlns="http://www.w3.org/2000/svg">
<rect width="210" height="210" fill="#3477AC"/>
<path d="M42.9091 46.9091L65.4091 117.636H66.2727L88.8182 46.9091H110.636L78.5455 140H53.1818L21.0455 46.9091H42.9091ZM172.341 73.6818C171.977 70.0151 170.417 67.1667 167.659 65.1364C164.902 63.1061 161.159 62.0909 156.432 62.0909C153.22 62.0909 150.508 62.5455 148.295 63.4545C146.083 64.3333 144.386 65.5606 143.205 67.1364C142.053 68.7121 141.477 70.5 141.477 72.5C141.417 74.1667 141.765 75.6212 142.523 76.8636C143.311 78.1061 144.386 79.1818 145.75 80.0909C147.114 80.9697 148.689 81.7424 150.477 82.4091C152.265 83.0455 154.174 83.5909 156.205 84.0455L164.568 86.0455C168.629 86.9545 172.356 88.1667 175.75 89.6818C179.144 91.197 182.083 93.0606 184.568 95.2727C187.053 97.4848 188.977 100.091 190.341 103.091C191.735 106.091 192.447 109.53 192.477 113.409C192.447 119.106 190.992 124.045 188.114 128.227C185.265 132.379 181.144 135.606 175.75 137.909C170.386 140.182 163.917 141.318 156.341 141.318C148.826 141.318 142.28 140.167 136.705 137.864C131.159 135.561 126.826 132.152 123.705 127.636C120.614 123.091 118.992 117.47 118.841 110.773H137.886C138.098 113.894 138.992 116.5 140.568 118.591C142.174 120.652 144.311 122.212 146.977 123.273C149.674 124.303 152.72 124.818 156.114 124.818C159.447 124.818 162.341 124.333 164.795 123.364C167.28 122.394 169.205 121.045 170.568 119.318C171.932 117.591 172.614 115.606 172.614 113.364C172.614 111.273 171.992 109.515 170.75 108.091C169.538 106.667 167.75 105.455 165.386 104.455C163.053 103.455 160.189 102.545 156.795 101.727L146.659 99.1818C138.811 97.2727 132.614 94.2879 128.068 90.2273C123.523 86.1667 121.265 80.697 121.295 73.8182C121.265 68.1818 122.765 63.2576 125.795 59.0455C128.856 54.8333 133.053 51.5455 138.386 49.1818C143.72 46.8182 149.78 45.6364 156.568 45.6364C163.477 45.6364 169.508 46.8182 174.659 49.1818C179.841 51.5455 183.871 54.8333 186.75 59.0455C189.629 63.2576 191.114 68.1364 191.205 73.6818H172.341Z" fill="white"/>
<line x1="28.5" y1="165.5" x2="187.5" y2="165.5" stroke="white" stroke-width="15" stroke-linecap="round"/>
</svg>
