<svg width="75" height="49" viewBox="0 0 75 49" fill="none" xmlns="http://www.w3.org/2000/svg">
<path d="M39.824 14.4476H18.9112L18.925 14.4545H8.46172L8.45482 14.4476H8.44792L6.79146 11.5897L6.78456 11.5829L5.05908 8.62862V8.60107H15.5017L15.5155 8.62862L17.2479 11.5829V11.5897H41.4943L39.824 14.4476Z" fill="white"/>
<path d="M29.0018 31.6703L28.9949 31.6634H47.3747L49.0518 28.8056H27.3177L27.3108 28.7987L25.6474 25.9546L25.5715 25.8169H15.191V25.9546L16.8544 28.7987L16.8613 28.8056H16.8544L18.5316 31.6634H18.5385L18.5454 31.6703H29.0018Z" fill="white"/>
<path d="M50.9912 40.2713L23.5699 40.285L20.0085 34.4316H30.6099L30.7203 34.6107L32.3561 37.3997V37.4065H52.6684L50.9912 40.2713Z" fill="white"/>
<path d="M37.85 46.7995L36.6698 48.8792H28.6152L26.9381 46.0213V46.0144L25.1919 43.0396H35.6552L35.7863 43.2668L37.0218 45.3809L37.3945 46.0213L37.85 46.7995Z" fill="white"/>
<path d="M43.6201 20.1907H22.2794L22.2725 20.1838L20.5815 17.2985L20.5401 17.2158H10.1251V17.2985L11.8161 20.1838V20.1907L13.5071 23.0623H41.9291L43.6201 20.1907Z" fill="white"/>
<path d="M12.1957 2.9749V2.96801L10.4633 0H0L1.73238 2.96801L1.73928 2.9749H1.73238L3.42335 5.8465H47.3747L49.0657 2.9749H12.1957Z" fill="white"/>
<path d="M50.9912 40.2712H69.0673L72.3802 34.4385H54.4077L50.9912 40.2712Z" fill="#2789FF"/>
<path d="M47.3746 5.83962H70.6686L74.0919 0H50.7911L47.3746 5.83962Z" fill="#2789FF"/>
<path d="M41.9291 23.0554H57.907L59.598 20.1838L61.2889 17.2158H45.3455L41.9291 23.0554Z" fill="#2789FF"/>
<path d="M65.0918 31.6703L65.1056 31.6565L68.4462 25.8169H50.7911L47.3746 31.6565L65.0918 31.6703Z" fill="#2789FF"/>
<path d="M36.6698 48.8792L60.9714 48.8723L64.2567 43.0396H39.9758L36.6698 48.8792Z" fill="#2789FF"/>
<path d="M54.3526 14.4543L57.7621 8.62842H43.2129L39.8171 14.4474L54.3526 14.4543Z" fill="#2789FF"/>
</svg>
